#Comment line ignore any data following # character 
#Hierarchical Translation and Rotation (.htr) file 
[Header]	
#Header keywords are followed by a single value 
FileType HTR		#Single word string
DataType HTRS		#Translation followed by rotation and scale data
FileVersion 1		#integer
NumSegments 84		#integer
NumFrames 2		#integer
DataFrameRate 30		#integer, data frame rate in this file
EulerRotationOrder ZYX
CalibrationUnits mm
RotationUnits Degrees
GlobalAxisofGravity Y
BoneLengthAxis Y
ScaleFactor 1.00
[SegmentNames&Hierarchy]
#CHILD	PARENT
MASTER GLOBAL
root MASTER
chest root
L_mid_tent01 root
R_mid_tent01 root
spine01 root
Bip01_Neck chest
L_humerus chest
R_humerus chest
weapon_bone chest
Bip01_Head Bip01_Neck
eye_left_bone Bip01_Head
eye_right_bone Bip01_Head
L_forearm L_humerus
L_front_hand L_forearm
L_weapon_bone L_forearm
L_front_hand01_01 L_front_hand
L_front_hand02_01 L_front_hand
L_front_hand03_01 L_front_hand
L_front_hand01_02 L_front_hand01_01
L_front_hand02_02 L_front_hand02_01
L_front_hand03_02 L_front_hand03_01
R_forearm R_humerus
R_front_hand R_forearm
R_weapon_bone R_forearm
R_front_hand01_01 R_front_hand
R_front_hand02_01 R_front_hand
R_front_hand03_01 R_front_hand
R_front_hand01_02 R_front_hand01_01
R_front_hand02_02 R_front_hand02_01
R_front_hand03_02 R_front_hand03_01
null_rope01_connect L_mid_tent01
Rope1_Seg01 null_rope01_connect
Rope1_Seg02 Rope1_Seg01
Rope1_Seg03 Rope1_Seg02
Rope1_Seg04 Rope1_Seg03
Rope1_Seg05 Rope1_Seg04
Rope1_Seg06 Rope1_Seg05
Rope1_Seg07 Rope1_Seg06
Rope1_Seg09 Rope1_Seg07
L_mid_hand01 Rope1_Seg09
L_mid_hand02 Rope1_Seg09
L_mid_hand03 Rope1_Seg09
null_rope02_connect R_mid_tent01
Rope2_Seg01 null_rope02_connect
Rope2_Seg02 Rope2_Seg01
Rope2_Seg03 Rope2_Seg02
Rope2_Seg04 Rope2_Seg03
Rope2_Seg05 Rope2_Seg04
Rope2_Seg06 Rope2_Seg05
Rope2_Seg07 Rope2_Seg06
Rope2_Seg09 Rope2_Seg07
R_mid_hand01 Rope2_Seg09
R_mid_hand02 Rope2_Seg09
R_mid_hand03 Rope2_Seg09
spine02 spine01
spine03 spine02
pelvis spine03
null_rope03_connect pelvis
null_rope04_connect pelvis
Rope3_Seg01 null_rope03_connect
Rope3_Seg02 Rope3_Seg01
Rope3_Seg03 Rope3_Seg02
Rope3_Seg04 Rope3_Seg03
Rope3_Seg05 Rope3_Seg04
Rope3_Seg06 Rope3_Seg05
Rope3_Seg07 Rope3_Seg06
Rope3_Seg08 Rope3_Seg07
Rope3_Seg09 Rope3_Seg08
R_rear_hand01 Rope3_Seg09
R_rear_hand02 Rope3_Seg09
R_rear_hand03 Rope3_Seg09
Rope4_Seg01 null_rope04_connect
Rope4_Seg02 Rope4_Seg01
Rope4_Seg03 Rope4_Seg02
Rope4_Seg04 Rope4_Seg03
Rope4_Seg05 Rope4_Seg04
Rope4_Seg06 Rope4_Seg05
Rope4_Seg07 Rope4_Seg06
Rope4_Seg08 Rope4_Seg07
Rope4_Seg09 Rope4_Seg08
L_rear_hand01 Rope4_Seg09
L_rear_hand02 Rope4_Seg09
L_rear_hand03 Rope4_Seg09
[BasePosition]
#SegmentName Tx, Ty, Tz, Rx, Ry, Rz, BoneLength
MASTER 0.000000 0.000000 0.000000 -90.000000 0.000000 0.000000 10.000000 
root 0.000000 0.000000 0.000000 0.000000 0.000000 0.000000 10.000000 
chest 0.000000 0.000000 0.000000 0.000000 0.000000 0.000000 10.000000 
L_mid_tent01 0.000000 0.000000 0.000000 0.000000 0.000000 0.000000 10.000000 
R_mid_tent01 0.000000 0.000000 0.000000 0.000000 0.000000 0.000000 10.000000 
spine01 0.000000 0.000000 0.000000 0.000000 0.000000 0.000000 10.000000 
Bip01_Neck 0.000000 0.000000 0.000000 0.000000 0.000000 0.000000 10.000000 
L_humerus 0.000000 0.000000 0.000000 0.000000 0.000000 0.000000 10.000000 
R_humerus 0.000000 0.000000 0.000000 0.000000 0.000000 0.000000 10.000000 
weapon_bone 0.000000 0.000000 0.000000 0.000000 0.000000 0.000000 10.000000 
Bip01_Head 0.000000 0.000000 0.000000 0.000000 0.000000 0.000000 10.000000 
eye_left_bone 0.000000 0.000000 0.000000 0.000000 0.000000 0.000000 10.000000 
eye_right_bone 0.000000 0.000000 0.000000 0.000000 0.000000 0.000000 10.000000 
L_forearm 0.000000 0.000000 0.000000 0.000000 0.000000 0.000000 10.000000 
L_front_hand 0.000000 0.000000 0.000000 0.000000 0.000000 0.000000 10.000000 
L_weapon_bone 0.000000 0.000000 0.000000 0.000000 0.000000 0.000000 10.000000 
L_front_hand01_01 0.000000 0.000000 0.000000 0.000000 0.000000 0.000000 10.000000 
L_front_hand02_01 0.000000 0.000000 0.000000 0.000000 0.000000 0.000000 10.000000 
L_front_hand03_01 0.000000 0.000000 0.000000 0.000000 0.000000 0.000000 10.000000 
L_front_hand01_02 0.000000 0.000000 0.000000 0.000000 0.000000 0.000000 10.000000 
L_front_hand02_02 0.000000 0.000000 0.000000 0.000000 0.000000 0.000000 10.000000 
L_front_hand03_02 0.000000 0.000000 0.000000 0.000000 0.000000 0.000000 10.000000 
R_forearm 0.000000 0.000000 0.000000 0.000000 0.000000 0.000000 10.000000 
R_front_hand 0.000000 0.000000 0.000000 0.000000 0.000000 0.000000 10.000000 
R_weapon_bone 0.000000 0.000000 0.000000 0.000000 0.000000 0.000000 10.000000 
R_front_hand01_01 0.000000 0.000000 0.000000 0.000000 0.000000 0.000000 10.000000 
R_front_hand02_01 0.000000 0.000000 0.000000 0.000000 0.000000 0.000000 10.000000 
R_front_hand03_01 0.000000 0.000000 0.000000 0.000000 0.000000 0.000000 10.000000 
R_front_hand01_02 0.000000 0.000000 0.000000 0.000000 0.000000 0.000000 10.000000 
R_front_hand02_02 0.000000 0.000000 0.000000 0.000000 0.000000 0.000000 10.000000 
R_front_hand03_02 0.000000 0.000000 0.000000 0.000000 0.000000 0.000000 10.000000 
null_rope01_connect 0.000000 0.000000 0.000000 0.000000 0.000000 0.000000 10.000000 
Rope1_Seg01 0.000000 0.000000 0.000000 0.000000 0.000000 0.000000 10.000000 
Rope1_Seg02 0.000000 0.000000 0.000000 0.000000 0.000000 0.000000 10.000000 
Rope1_Seg03 0.000000 0.000000 0.000000 0.000000 0.000000 0.000000 10.000000 
Rope1_Seg04 0.000000 0.000000 0.000000 0.000000 0.000000 0.000000 10.000000 
Rope1_Seg05 0.000000 0.000000 0.000000 0.000000 0.000000 0.000000 10.000000 
Rope1_Seg06 0.000000 0.000000 0.000000 0.000000 0.000000 0.000000 10.000000 
Rope1_Seg07 0.000000 0.000000 0.000000 0.000000 0.000000 0.000000 10.000000 
Rope1_Seg09 0.000000 0.000000 0.000000 0.000000 0.000000 0.000000 10.000000 
L_mid_hand01 0.000000 0.000000 0.000000 0.000000 0.000000 0.000000 10.000000 
L_mid_hand02 0.000000 0.000000 0.000000 0.000000 0.000000 0.000000 10.000000 
L_mid_hand03 0.000000 0.000000 0.000000 0.000000 0.000000 0.000000 10.000000 
null_rope02_connect 0.000000 0.000000 0.000000 0.000000 0.000000 0.000000 10.000000 
Rope2_Seg01 0.000000 0.000000 0.000000 0.000000 0.000000 0.000000 10.000000 
Rope2_Seg02 0.000000 0.000000 0.000000 0.000000 0.000000 0.000000 10.000000 
Rope2_Seg03 0.000000 0.000000 0.000000 0.000000 0.000000 0.000000 10.000000 
Rope2_Seg04 0.000000 0.000000 0.000000 0.000000 0.000000 0.000000 10.000000 
Rope2_Seg05 0.000000 0.000000 0.000000 0.000000 0.000000 0.000000 10.000000 
Rope2_Seg06 0.000000 0.000000 0.000000 0.000000 0.000000 0.000000 10.000000 
Rope2_Seg07 0.000000 0.000000 0.000000 0.000000 0.000000 0.000000 10.000000 
Rope2_Seg09 0.000000 0.000000 0.000000 0.000000 0.000000 0.000000 10.000000 
R_mid_hand01 0.000000 0.000000 0.000000 0.000000 0.000000 0.000000 10.000000 
R_mid_hand02 0.000000 0.000000 0.000000 0.000000 0.000000 0.000000 10.000000 
R_mid_hand03 0.000000 0.000000 0.000000 0.000000 0.000000 0.000000 10.000000 
spine02 0.000000 0.000000 0.000000 0.000000 0.000000 0.000000 10.000000 
spine03 0.000000 0.000000 0.000000 0.000000 0.000000 0.000000 10.000000 
pelvis 0.000000 0.000000 0.000000 0.000000 0.000000 0.000000 10.000000 
null_rope03_connect 0.000000 0.000000 0.000000 0.000000 0.000000 0.000000 10.000000 
null_rope04_connect 0.000000 0.000000 0.000000 0.000000 0.000000 0.000000 10.000000 
Rope3_Seg01 0.000000 0.000000 0.000000 0.000000 0.000000 0.000000 10.000000 
Rope3_Seg02 0.000000 0.000000 0.000000 0.000000 0.000000 0.000000 10.000000 
Rope3_Seg03 0.000000 0.000000 0.000000 0.000000 0.000000 0.000000 10.000000 
Rope3_Seg04 0.000000 0.000000 0.000000 0.000000 0.000000 0.000000 10.000000 
Rope3_Seg05 0.000000 0.000000 0.000000 0.000000 0.000000 0.000000 10.000000 
Rope3_Seg06 0.000000 0.000000 0.000000 0.000000 0.000000 0.000000 10.000000 
Rope3_Seg07 0.000000 0.000000 0.000000 0.000000 0.000000 0.000000 10.000000 
Rope3_Seg08 0.000000 0.000000 0.000000 0.000000 0.000000 0.000000 10.000000 
Rope3_Seg09 0.000000 0.000000 0.000000 0.000000 0.000000 0.000000 10.000000 
R_rear_hand01 0.000000 0.000000 0.000000 0.000000 0.000000 0.000000 10.000000 
R_rear_hand02 0.000000 0.000000 0.000000 0.000000 0.000000 0.000000 10.000000 
R_rear_hand03 0.000000 0.000000 0.000000 0.000000 0.000000 0.000000 10.000000 
Rope4_Seg01 0.000000 0.000000 0.000000 0.000000 0.000000 0.000000 10.000000 
Rope4_Seg02 0.000000 0.000000 0.000000 0.000000 0.000000 0.000000 10.000000 
Rope4_Seg03 0.000000 0.000000 0.000000 0.000000 0.000000 0.000000 10.000000 
Rope4_Seg04 0.000000 0.000000 0.000000 0.000000 0.000000 0.000000 10.000000 
Rope4_Seg05 0.000000 0.000000 0.000000 0.000000 0.000000 0.000000 10.000000 
Rope4_Seg06 0.000000 0.000000 0.000000 0.000000 0.000000 0.000000 10.000000 
Rope4_Seg07 0.000000 0.000000 0.000000 0.000000 0.000000 0.000000 10.000000 
Rope4_Seg08 0.000000 0.000000 0.000000 0.000000 0.000000 0.000000 10.000000 
Rope4_Seg09 0.000000 0.000000 0.000000 0.000000 0.000000 0.000000 10.000000 
L_rear_hand01 0.000000 0.000000 0.000000 0.000000 0.000000 0.000000 10.000000 
L_rear_hand02 0.000000 0.000000 0.000000 0.000000 0.000000 0.000000 10.000000 
L_rear_hand03 0.000000 0.000000 0.000000 0.000000 0.000000 0.000000 10.000000 
#Beginning of Data. Separated by tabs
#Fr	Tx	Ty	Tz	Rx	Ry	Rz	SF
[MASTER]
13 0.000003 -0.000076 -1561.910278 0.001660 0.001660 0.001660 1561.910278
14 0.000003 -0.000073 -1784.464233 0.001660 0.001660 0.001660 1784.464233
[root]
13 -16.502298 -21.534222 1466.050781 -96.533890 -15.487558 -91.469177 1466.301758
14 -16.502298 -19.795805 1464.905029 -97.195892 -18.402208 -91.037918 1465.131714
[chest]
13 -84.512650 -34.090519 0.000000 -31.312807 -3.181022 160.930542 91.129311
14 -84.512650 -34.090519 0.000000 -22.828699 -4.900471 160.995377 91.129311
[L_mid_tent01]
13 27.299273 22.178532 -249.918549 -6.560143 59.365231 75.076805 252.381500
14 27.299271 22.178547 -249.918564 -1.645228 51.082233 78.624367 252.381516
[R_mid_tent01]
13 23.228794 24.509907 226.238495 161.388565 -59.835907 87.711098 228.744751
14 23.228794 24.509907 226.238495 160.580368 -55.596668 88.337692 228.744751
[spine01]
13 -0.361383 -0.195265 0.000000 0.002062 0.001122 32.879829 0.410763
14 -0.361383 -0.195265 0.000000 0.002062 0.001122 32.879829 0.410763
[Bip01_Neck]
13 165.484543 71.581718 0.000119 176.643677 -1.657967 43.431911 180.302734
14 165.484543 71.581718 0.000119 176.643677 -1.657967 43.431911 180.302734
[L_humerus]
13 -13.983130 -135.272980 -120.471481 90.834091 75.556618 -163.233078 181.680161
14 -13.983130 -135.272980 -120.471481 54.900826 70.380043 171.045090 181.680161
[R_humerus]
13 -13.983309 -135.273102 125.287651 -168.086761 -35.191032 -102.133209 184.909012
14 -13.983309 -135.273102 125.287651 -168.805573 -22.085073 -103.532448 184.909012
[weapon_bone]
13 235.964890 -300.705902 0.000000 0.000000 -89.951546 -128.212341 382.234833
14 235.964890 -300.705902 0.000000 0.000000 -89.951546 -128.212341 382.234833
[Bip01_Head]
13 213.327713 186.036697 7.631702 32.792587 6.111297 -43.835262 283.154724
14 213.327301 186.039490 7.595443 33.112514 6.138135 -43.832130 283.155304
[eye_left_bone]
13 -24.626970 125.451866 -64.772606 0.000000 -90.000000 -99.840431 143.318359
14 -24.626970 125.451866 -64.772606 0.000000 -90.000000 -99.840431 143.318359
[eye_right_bone]
13 -24.626970 125.451866 64.327362 0.000000 -89.965736 80.156380 143.117676
14 -24.626970 125.451866 64.327362 0.000000 -89.972023 80.156387 143.117676
[L_forearm]
13 322.776093 0.000000 -0.000119 0.000171 -0.002341 -98.360771 322.776093
14 322.776093 0.000000 -0.000119 0.000163 -0.002342 -97.955574 322.776093
[L_front_hand]
13 241.149185 -0.042021 -3.300071 -178.547226 -1.744399 -31.211922 241.171753
14 241.149185 -0.042021 -3.300071 -178.558456 -1.754026 -30.837126 241.171753
[L_weapon_bone]
13 156.183838 0.000000 0.000000 0.000014 0.000007 0.000001 156.183838
14 156.183838 0.000000 0.000000 0.000014 0.000007 0.000001 156.183838
[L_front_hand01_01]
13 86.095154 20.947098 -0.655860 -0.366594 -0.477154 75.385582 88.609184
14 86.095154 20.947098 -0.655860 -0.366594 -0.477154 75.385582 88.609184
[L_front_hand02_01]
13 86.935165 -11.437475 24.513514 154.399796 -59.883835 -61.369587 91.046425
14 86.935165 -11.437475 24.513514 154.399811 -59.883835 -61.369587 91.046425
[L_front_hand03_01]
13 86.637497 -14.123976 -20.424902 -153.913879 58.118130 -62.702892 90.126129
14 86.637497 -14.123976 -20.424902 -153.913849 58.118130 -62.702866 90.126129
[L_front_hand01_02]
13 71.020905 -0.000179 0.000030 0.000333 -0.002324 -106.293167 71.020905
14 71.020905 -0.000179 0.000030 0.000333 -0.002323 -106.336433 71.020905
[L_front_hand02_02]
13 71.020927 -0.000119 0.000060 0.000333 -0.002324 -106.293167 71.020927
14 71.020927 -0.000119 0.000060 0.000333 -0.002323 -106.336433 71.020927
[L_front_hand03_02]
13 71.020905 -0.000060 0.000060 0.000333 -0.002324 -106.293167 71.020905
14 71.020905 -0.000060 0.000060 0.000333 -0.002323 -106.336433 71.020905
[R_forearm]
13 322.776428 -0.000060 0.000030 0.212522 0.020221 -96.498543 322.776428
14 322.776428 -0.000060 0.000030 0.212585 0.019562 -96.142914 322.776428
[R_front_hand]
13 238.847015 -0.006795 2.210259 -1.799125 -10.816968 -30.792778 238.857239
14 238.847015 -0.006795 2.210259 -1.882950 -10.803555 -30.348221 238.857239
[R_weapon_bone]
13 155.664093 0.002503 -0.000030 0.003487 0.001180 -90.988930 155.664078
14 155.664093 0.002503 -0.000030 0.003487 0.001180 -90.988930 155.664078
[R_front_hand01_01]
13 87.624611 14.231146 22.918642 -154.633484 -59.950607 61.746033 91.683487
14 87.624611 14.231146 22.918642 -154.633484 -59.950607 61.746033 91.683487
[R_front_hand02_01]
13 89.356956 14.367283 -19.491137 154.602661 58.302849 63.744389 92.579636
14 89.356956 14.367283 -19.491137 154.602661 58.302849 63.744389 92.579636
[R_front_hand03_01]
13 87.286232 -22.307278 -0.143439 0.162155 -0.423168 -75.767921 90.091743
14 87.286232 -22.307278 -0.143439 0.162155 -0.423168 -75.767921 90.091743
[R_front_hand01_02]
13 71.020905 0.000060 0.000119 0.002323 -0.000334 106.381714 71.020905
14 71.020905 0.000060 0.000119 0.002323 -0.000334 106.381706 71.020905
[R_front_hand02_02]
13 71.020844 -0.000030 -0.000119 0.002323 -0.000334 106.381714 71.020836
14 71.020844 -0.000030 -0.000119 0.002323 -0.000334 106.381706 71.020836
[R_front_hand03_02]
13 71.020905 0.000000 0.000030 0.002323 -0.000334 106.381714 71.020905
14 71.020905 0.000000 0.000030 0.002323 -0.000334 106.381706 71.020905
[null_rope01_connect]
13 328.732483 0.000000 -0.000238 -157.023880 -23.360651 -176.697098 328.732483
14 328.732483 0.000000 -0.000238 -152.555405 -31.311712 -178.400116 328.732483
[Rope1_Seg01]
13 0.000023 -0.000051 0.000094 -10.784160 -1.784919 -166.302994 0.000110
14 0.000025 -0.000051 0.000102 -4.182163 6.692064 -164.206284 0.000117
[Rope1_Seg02]
13 139.999863 -0.000179 0.000000 -14.936714 -15.641999 -24.060919 139.999863
14 139.999863 -0.000179 0.000000 -10.678422 -8.896754 -28.294371 139.999863
[Rope1_Seg03]
13 139.999924 0.000060 -0.000060 -6.672269 -8.178992 -29.507935 139.999924
14 139.999924 0.000060 -0.000060 -1.944918 -5.151967 -34.203720 139.999924
[Rope1_Seg04]
13 139.999924 -0.000060 -0.000119 -0.705512 -2.068434 -16.355053 139.999924
14 139.999924 -0.000060 -0.000119 1.553006 4.083384 -19.242241 139.999924
[Rope1_Seg05]
13 139.999832 0.000119 -0.000060 0.168841 -0.446667 -4.787861 139.999832
14 139.999832 0.000119 -0.000060 0.840904 2.747894 -6.318820 139.999832
[Rope1_Seg06]
13 139.999954 0.000119 -0.000060 0.165053 -0.232166 -2.511296 139.999954
14 139.999954 0.000119 -0.000060 0.900293 0.750081 -3.311639 139.999954
[Rope1_Seg07]
13 139.999985 0.000060 0.000000 0.183620 -0.217649 -2.046317 139.999985
14 139.999985 0.000060 0.000000 0.627360 0.423279 -2.018959 139.999985
[Rope1_Seg09]
13 121.602913 0.000119 -0.000089 -89.793175 -1.359789 0.847147 121.602913
14 121.602913 0.000119 -0.000089 -89.793175 -1.359789 0.847147 121.602913
[L_mid_hand01]
13 103.859421 1.038730 8.195221 130.544373 -67.584534 -38.866943 104.187431
14 103.859421 1.038730 8.195221 130.544373 -67.584534 -38.866943 104.187431
[L_mid_hand02]
13 105.572853 -4.139662 -10.864139 -168.923172 43.409309 -73.498886 106.211075
14 105.572853 -4.139662 -10.864139 -168.923172 43.409309 -73.498886 106.211075
[L_mid_hand03]
13 104.641464 17.579376 -3.913581 -6.012627 17.808174 74.893669 106.179977
14 104.641464 17.579376 -3.913581 -6.012625 17.808174 74.893669 106.179977
[null_rope02_connect]
13 328.732849 0.000179 -0.000119 -140.070450 35.341614 12.310769 328.732849
14 328.732849 0.000179 -0.000119 -135.157043 39.415058 15.736949 328.732849
[Rope2_Seg01]
13 -0.000018 0.000103 0.000000 55.021759 52.065151 -10.906059 0.000104
14 -0.000013 0.000103 0.000000 52.499790 50.014843 -13.922724 0.000104
[Rope2_Seg02]
13 139.999741 -0.000060 -0.000119 -0.278740 6.265484 -3.402012 139.999756
14 139.999741 -0.000060 -0.000119 -0.513979 6.598201 -4.299258 139.999756
[Rope2_Seg03]
13 140.000107 0.000030 0.000000 -0.510540 10.255238 -5.592899 140.000107
14 140.000107 0.000030 0.000000 -0.711139 10.502586 -6.827202 140.000107
[Rope2_Seg04]
13 139.999802 0.000000 -0.000060 -0.725235 15.393588 -9.654710 139.999802
14 139.999802 0.000000 -0.000060 -0.792194 15.326702 -9.377158 139.999802
[Rope2_Seg05]
13 139.999985 -0.000060 0.000119 -1.944325 24.746912 -13.273809 139.999985
14 139.999985 -0.000060 0.000119 0.718302 19.748999 -14.177663 139.999985
[Rope2_Seg06]
13 139.999893 -0.000030 -0.000119 -5.576495 22.944191 -9.793673 139.999893
14 139.999893 -0.000030 -0.000119 17.526840 20.949654 -19.441757 139.999893
[Rope2_Seg07]
13 139.999893 0.000060 -0.000060 -16.577906 11.050988 -4.103739 139.999893
14 139.999893 0.000060 -0.000060 51.815662 7.426964 -13.823317 139.999893
[Rope2_Seg09]
13 121.338966 0.000089 -0.000060 33.793236 -1.359788 -0.847141 121.338966
14 121.338966 0.000089 -0.000060 33.793236 -1.359788 -0.847141 121.338966
[R_mid_hand01]
13 104.680779 11.144459 -10.335981 -16.212063 45.237247 70.462852 105.778534
14 104.680779 11.144459 -10.335981 -16.212063 45.237247 70.462852 105.778534
[R_mid_hand02]
13 104.070427 2.443552 8.231699 49.067371 -67.749794 39.286461 104.424065
14 104.070427 2.443552 8.231699 49.067371 -67.749794 39.286461 104.424065
[R_mid_hand03]
13 106.028137 -11.221827 -5.996406 -177.101105 15.551026 -76.585571 106.788818
14 106.028137 -11.221827 -5.996406 -177.101105 15.551026 -76.585571 106.788818
[spine02]
13 129.756927 0.001550 0.000119 -1.204827 -4.076839 9.324333 129.756927
14 129.756927 0.001550 0.000119 -1.202521 -4.059837 9.299195 129.756927
[spine03]
13 78.613991 0.083424 -4.898940 0.919840 4.541326 2.636967 78.766525
14 78.613991 0.083364 -4.898942 0.921411 4.504842 2.656507 78.766525
[pelvis]
13 169.435242 0.051022 0.000000 0.026482 -0.039934 -13.939976 169.435257
14 169.435242 0.051022 0.000000 0.028259 -0.054672 -13.892651 169.435257
[null_rope03_connect]
13 -1.257226 -2.466202 137.391083 -153.806961 -82.279961 -131.589584 137.418976
14 -1.257226 -2.466202 137.391083 -154.748245 -81.785461 -127.741943 137.418976
[null_rope04_connect]
13 -1.259640 -2.480268 -137.844437 -153.806961 -82.279961 -131.589584 137.872513
14 -1.259640 -2.480268 -137.844437 -154.748245 -81.785461 -127.741943 137.872513
[Rope3_Seg01]
13 -0.000029 -0.000026 0.000094 11.504949 -11.461909 -54.053627 0.000102
14 -0.000029 -0.000025 0.000102 8.977944 -15.012262 -50.357300 0.000109
[Rope3_Seg02]
13 139.999924 -0.000119 0.000060 -1.711674 -4.636738 2.209609 139.999924
14 139.999924 -0.000119 0.000060 -1.666342 -5.131571 0.873476 139.999924
[Rope3_Seg03]
13 139.999924 -0.000119 0.000119 -1.766942 -5.085737 2.248863 139.999924
14 139.999924 -0.000119 0.000119 -1.499528 -5.361948 0.760142 139.999924
[Rope3_Seg04]
13 139.999924 0.000119 0.000000 -1.762886 -3.466318 3.989855 139.999924
14 139.999924 0.000119 0.000000 -1.172285 -3.638059 1.592737 139.999924
[Rope3_Seg05]
13 139.999924 -0.000238 0.000060 -1.800804 -4.995567 2.610381 139.999924
14 139.999924 -0.000238 0.000060 -1.072970 -5.247672 0.545935 139.999924
[Rope3_Seg06]
13 139.999893 -0.000119 -0.000060 -0.853533 -11.653618 -4.048415 139.999893
14 139.999893 -0.000119 -0.000060 -0.497721 -10.502167 -2.619869 139.999893
[Rope3_Seg07]
13 139.999771 0.000060 -0.000119 1.140706 -13.388424 -6.848924 139.999771
14 139.999771 0.000060 -0.000119 0.859544 -11.698912 -3.711358 139.999771
[Rope3_Seg08]
13 139.999985 -0.000060 0.000000 1.444365 -7.655559 -2.960495 139.999985
14 139.999985 -0.000060 0.000000 1.265678 -7.027046 -1.780735 139.999985
[Rope3_Seg09]
13 90.185997 -0.000179 -0.000060 89.793228 -1.359877 -0.847183 90.185997
14 90.185997 -0.000179 -0.000060 89.793228 -1.359877 -0.847183 90.185997
[R_rear_hand01]
13 103.366196 -6.073594 -10.757982 -177.714203 24.565960 -73.910950 104.101845
14 103.366196 -6.073594 -10.757982 -177.714203 24.565958 -73.910942 104.101845
[R_rear_hand02]
13 100.509819 12.039542 -7.992327 -12.874829 36.868488 72.167213 101.543350
14 100.509819 12.039542 -7.992327 -12.874826 36.868492 72.167221 101.543350
[R_rear_hand03]
13 101.539970 5.215704 5.435467 71.484581 -71.816628 21.513813 101.819031
14 101.539970 5.215704 5.435467 71.484581 -71.816628 21.513813 101.819031
[Rope4_Seg01]
13 0.000000 0.000000 0.000000 -91.947334 -31.005630 -120.018417 0.000000
14 0.000000 0.000000 0.000000 -93.034187 -31.424877 -117.910172 0.000000
[Rope4_Seg02]
13 139.999985 0.000060 0.000119 0.238952 10.657681 7.549679 139.999985
14 139.999985 0.000060 0.000119 -0.602917 8.113497 12.807640 139.999985
[Rope4_Seg03]
13 139.999924 0.000000 -0.000238 -0.687475 19.611343 15.171224 139.999924
14 139.999924 0.000000 -0.000238 -5.809228 13.452474 22.938375 139.999924
[Rope4_Seg04]
13 139.999985 0.000000 0.000119 -18.855825 24.044167 21.893017 139.999985
14 139.999985 0.000000 0.000119 -19.018608 10.278498 23.426699 139.999985
[Rope4_Seg05]
13 139.999802 -0.000060 -0.000119 -111.604973 15.754212 25.739527 139.999802
14 139.999802 -0.000060 -0.000119 -33.088787 -0.410275 21.976589 139.999802
[Rope4_Seg06]
13 139.999924 0.000000 0.000060 -13.651786 -12.624454 1.994992 139.999924
14 139.999924 0.000000 0.000060 -28.183767 -12.881579 17.752014 139.999924
[Rope4_Seg07]
13 139.999802 0.000000 0.000000 -2.596881 -5.763281 -0.620471 139.999802
14 139.999802 0.000000 0.000000 -8.820871 -10.406301 5.564492 139.999802
[Rope4_Seg08]
13 139.999924 0.000000 0.000119 -2.549018 -3.036583 -0.465213 139.999924
14 139.999924 0.000000 0.000119 -4.600432 -5.455310 1.985100 139.999924
[Rope4_Seg09]
13 90.185791 0.000060 0.000060 -135.617828 2.228885 0.850567 90.185791
14 90.185791 0.000060 0.000060 -135.617828 2.228885 0.850567 90.185791
[L_rear_hand01]
13 101.696655 -8.392275 -7.654577 -12.874829 -36.868488 107.832764 102.329041
14 101.696655 -8.392275 -7.654577 -12.874826 -36.868492 107.832764 102.329041
[L_rear_hand02]
13 102.726799 -1.568258 5.773216 71.484581 71.816628 158.486160 102.900848
14 102.726799 -1.568258 5.773216 71.484581 71.816628 158.486160 102.900848
[L_rear_hand03]
13 104.552910 9.721220 -10.420293 -177.714203 -24.565960 -106.089035 105.519653
14 104.552910 9.721220 -10.420293 -177.714203 -24.565958 -106.089043 105.519653
